<?xml version="1.0" encoding="utf-8"?>
<!-- Generator: Adobe Illustrator 19.2.1, SVG Export Plug-In . SVG Version: 6.00 Build 0)  -->
<svg version="1.1" id="Слой_1" xmlns="http://www.w3.org/2000/svg" xmlns:xlink="http://www.w3.org/1999/xlink" x="0px" y="0px"
	 viewBox="0 0 15.7 15.7" style="enable-background:new 0 0 15.7 15.7;" xml:space="preserve">
<style type="text/css">
	.st0{fill:#F15A25;}
</style>
<path id="элемент_svg_копия_4" class="st0" d="M15.7,7.9c0,4.3-3.5,7.8-7.8,7.9c0,0,0,0,0,0h0C3.5,15.7,0,12.2,0,7.9
	l0,0C0,3.5,3.5,0,7.9,0h0C12.2,0,15.7,3.5,15.7,7.9C15.7,7.8,15.7,7.8,15.7,7.9L15.7,7.9z M7.9,1.6c-3.5,0-6.3,2.8-6.3,6.3l0,0h0
	c0,3.5,2.8,6.3,6.3,6.3l0,0v0c3.5,0,6.3-2.8,6.3-6.3S11.3,1.5,7.9,1.6L7.9,1.6z M7.9,12.6L7.9,12.6c-2.6,0-4.7-2.1-4.8-4.7v0
	c0-0.1,0-0.3,0-0.4c0-0.2,0-0.3,0-0.5c0-0.1,0.1-0.2,0.1-0.3c0-0.2,0.1-0.4,0.2-0.6c0-0.1,0.1-0.1,0.1-0.2c0.1-0.2,0.2-0.4,0.3-0.6
	C4,5.2,4,5.1,4.1,5.1c0.1-0.2,0.3-0.4,0.4-0.5c0.1-0.1,0.2-0.1,0.2-0.2C4.9,4.2,5,4.1,5.2,4c0.1-0.1,0.3-0.2,0.4-0.2
	C5.7,3.6,5.9,3.6,6,3.5c0.2-0.1,0.4-0.1,0.6-0.2c0.1,0,0.2-0.1,0.3-0.1c0.3-0.1,0.6-0.1,0.9-0.1c2.6,0,4.7,2.1,4.8,4.7c0,0,0,0,0,0
	v0.1C12.6,10.4,10.5,12.5,7.9,12.6z M7.8,4.7c-0.6,0-1.2,0.2-1.8,0.6c0,0,0,0,0,0C5.9,5.4,5.8,5.5,5.6,5.6C5.5,5.7,5.5,5.8,5.4,5.9
	C5.3,6,5.3,6,5.2,6.1C5.2,6.2,5.1,6.4,5,6.5c0,0,0,0.1-0.1,0.1C4.9,6.8,4.9,6.9,4.8,7.1c0,0.1,0,0.1,0,0.2c0,0.1,0,0.2,0,0.4
	s0,0.2,0,0.3l0,0h0c0,1.7,1.4,3.1,3.1,3.1l0,0v0C9.6,11,11,9.5,11,7.8S9.6,4.7,7.8,4.7L7.8,4.7L7.8,4.7z"/>
</svg>
