<svg id="Слой_1" xmlns="http://www.w3.org/2000/svg" viewBox="0 0 15.7 15.7"><style>.st0{fill:#f15a25}</style><path id="элемент_svg_копия_4" class="st0" d="M15.7 7.9c0 4.3-3.5 7.8-7.8 7.9C3.5 15.7 0 12.2 0 7.9 0 3.5 3.5 0 7.9 0c4.3 0 7.8 3.5 7.8 7.9 0-.1 0-.1 0 0zM7.9 1.6c-3.5 0-6.3 2.8-6.3 6.3s2.8 6.3 6.3 6.3 6.3-2.8 6.3-6.3-2.9-6.4-6.3-6.3zm0 11c-2.6 0-4.7-2.1-4.8-4.7V7c0-.1.1-.2.1-.3 0-.2.1-.4.2-.6 0-.1.1-.1.1-.2l.3-.6c.2-.1.2-.2.3-.2.1-.2.3-.4.4-.5.1-.1.2-.1.2-.2.2-.2.3-.3.5-.4.1-.1.3-.2.4-.2.1-.2.3-.2.4-.3.2-.1.4-.1.6-.2.1 0 .2-.1.3-.1.3-.1.6-.1.9-.1 2.6 0 4.7 2.1 4.8 4.7v.1c0 2.5-2.1 4.6-4.7 4.7zm-.1-7.9c-.6 0-1.2.2-1.8.6-.1.1-.2.2-.4.3-.1.1-.1.2-.2.3l-.2.2c0 .1-.1.3-.2.4 0 0 0 .1-.1.1 0 .2 0 .3-.1.5V8c0 1.7 1.4 3.1 3.1 3.1C9.6 11 11 9.5 11 7.8S9.6 4.7 7.8 4.7z"/></svg>